# xmcd CD database file
#
# Track frame offsets:
#	150
#	14268
#	29598
#	46533
#	57377
#	67487
#	77275
#	88335
#	96639
#	109964
#	129161
#	142209
#	156552
#	167676
#	183083
#	202091
#
# Disc length: 2954 seconds
#
# Revision: 2
# Processed by: cddbd v1.5.2PL0 Copyright (c) Steve Scherf et al.
# Submitted via: CDex 1.70beta2
#
DISCID=e90b8810
DTITLE=Paul Ansell - Love Conquers All
DYEAR=2008
DGENRE=Country
TTITLE0=Tear Joint
TTITLE1=Fly Away
TTITLE2=Early Mornin' Rain
TTITLE3=Big City
TTITLE4=My Pledge Of Love
TTITLE5=Blue For Two
TTITLE6=Love Conquers All
TTITLE7=Start All Over Again
TTITLE8=Baby Baby
TTITLE9=Set Me Free
TTITLE10=Bloodshot Eyes
TTITLE11=Walking Over Me
TTITLE12=Let Me Be The One
TTITLE13=Oh So Lonely
TTITLE14=If I Should Fall Behind
TTITLE15=Answer To My Prayer
EXTD=YEAR: 2008
EXTT0=
EXTT1=
EXTT2=
EXTT3=
EXTT4=
EXTT5=
EXTT6=
EXTT7=
EXTT8=
EXTT9=
EXTT10=
EXTT11=
EXTT12=
EXTT13=
EXTT14=
EXTT15=
PLAYORDER=
